<svg version="1.1" xmlns="http://www.w3.org/2000/svg" xmlns:xlink="http://www.w3.org/1999/xlink" width="1560" height="804"><defs/><g><path fill="none" stroke="#12bfb2" paint-order="fill stroke markers" d=" M 20 414.6408779609292 L 21 415.2636445410918 L 22 415.8850578377357 L 23 416.5050544483496 L 24 417.12357111496607 L 25 417.7405447306156 L 26 418.35591234576555 L 27 418.96961117474274 L 28 419.58157860213936 L 29 420.1917521892019 L 30 420.8000696802014 L 31 421.40646900878556 L 32 422.0108883043114 L 33 422.6132658981576 L 34 423.2135403300169 L 35 423.8116503541666 L 36 424.40753494571754 L 37 425.0011333068404 L 38 425.5923848729689 L 39 426.1812293189792 L 40 426.76760656534475 L 41 427.35145678426636 L 42 427.9327204057761 L 43 428.5113381238155 L 44 429.0872509022864 L 45 429.6603999810743 L 46 430.2307268820438 L 47 430.79817341500495 L 48 431.36268168365035 L 49 431.9241940914624 L 50 432.48265334758986 L 51 433.0380024726931 L 52 433.59018480475766 L 53 434.13914400487556 L 54 434.6848240629935 L 55 435.22716930362753 L 56 435.7661243915435 L 57 436.3016343374031 L 58 436.8336445033741 L 59 437.36210060870536 L 60 437.8869487352648 L 61 438.4081353330409 L 62 438.925607225606 L 63 439.43931161554224 L 64 439.94919608982826 L 65 440.45520862518697 L 66 440.95729759339343 L 67 441.45541176654234 L 68 441.949500322275 L 69 442.43951284896457 L 70 442.9253993508595 L 71 443.4071102531848 L 72 443.8845964071998 L 73 444.35780909521304 L 74 444.8267000355528 L 75 445.2912213874933 L 76 445.75132575613577 L 77 446.2069661972443 L 78 446.6580962220354 L 79 447.10466980192126 L 80 447.546641373206 L 81 447.98396584173463 L 82 448.4165985874939 L 83 448.84449546916477 L 84 449.2676128286263 L 85 449.68590749541 L 86 450.09933679110446 L 87 450.50785853370985 L 88 450.9114310419416 L 89 451.31001313948343 L 90 451.7035641591882 L 91 452.0920439472274 L 92 452.4754128671879 L 93 452.8536318041161 L 94 453.2266621685087 L 95 453.5944659002502 L 96 453.95700547249595 L 97 454.314243895501 L 98 454.66614472039436 L 99 455.01267204289746 L 100 455.35379050698793 L 101 455.6894653085066 L 102 456.0196621987088 L 103 456.34434748775834 L 104 456.66348804816545 L 105 456.9770513181663 L 106 457.2850053050455 L 107 457.58731858840014 L 108 457.8839603233457 L 109 458.1749002436633 L 110 458.46010866488723 L 111 458.7395564873343 L 112 459.0132151990723 L 113 459.28105687882953 L 114 459.5430541988432 L 115 459.79918042764797 L 116 460.04940943280315 L 117 460.29371568355896 L 118 460.53207425346176 L 119 460.7644608228968 L 120 460.99085168156995 L 121 461.2112237309265 L 122 461.4255544865082 L 123 461.6338220802472 L 124 461.8360052626972 L 125 462.03208340520166 L 126 462.2220365019983 L 127 462.40584517226046 L 128 462.5834906620746 L 129 462.7549548463536 L 130 462.92022023068586 L 131 463.0792699531208 L 132 463.2320877858887 L 133 463.3786581370568 L 134 463.51896605211994 L 135 463.65299721552645 L 136 463.7807379521387 L 137 463.9021752286283 L 138 464.0172966548063 L 139 464.1260904848867 L 140 464.2285456186853 L 141 464.3246516027522 L 142 464.41439863143836 L 143 464.4977775478959 L 144 464.57477984501253 L 145 464.64539766627945 L 146 464.70962380659313 L 147 464.76745171299 L 148 464.8188754853157 L 149 464.86388987682636 L 150 464.90249029472454 L 151 464.9346728006274 L 152 464.9604341109688 L 153 464.97977159733404 L 154 464.99268328672844 L 155 464.9991678617783 L 156 464.99922466086537 L 157 464.9928536781945 L 158 464.98005556379405 L 159 464.96083162344985 L 160 464.9351838185715 L 161 464.9031147659927 L 162 464.8646277377041 L 163 464.8197266605194 L 164 464.7684161156747 L 165 464.7107013383612 L 166 464.6465882171909 L 167 464.5760832935959 L 168 464.499193761161 L 169 464.4159274648896 L 170 464.3262929004034 L 171 464.2302992130756 L 172 464.12795619709766 L 173 464.0192742944803 L 174 463.9042645939876 L 175 463.78293883000623 L 176 463.6553093813477 L 177 463.5213892699858 L 178 463.3811921597274 L 179 463.23473235481885 L 180 463.0820247984864 L 181 462.9230850714113 L 182 462.7579293901405 L 183 462.5865746054317 L 184 462.4090382005343 L 185 462.2253382894057 L 186 462.0354936148629 L 187 461.83952354667014 L 188 461.63744807956294 L 189 461.42928783120766 L 190 461.21506404009824 L 191 460.99479856338905 L 192 460.76851387466473 L 193 460.5362330616475 L 194 460.2979798238413 L 195 460.0537784701137 L 196 459.803653916216 L 197 459.5476316822407 L 198 459.28573789001797 L 199 459.01799926045027 L 200 458.74444311078616 L 201 458.4650973518332 L 202 458.17999048510984 L 203 457.8891515999379 L 204 457.5926103704744 L 205 457.2903970526838 L 206 456.9825424812511 L 207 456.6690780664359 L 208 456.3500357908674 L 209 456.02544820628157 L 210 455.69534843019954 L 211 455.3597701425487 L 212 455.0187475822267 L 213 454.6723155436075 L 214 454.3205093729919 L 215 453.9633649650008 L 216 453.60091875891294 L 217 453.2332077349471 L 218 452.860269410489 L 219 452.4821418362635 L 220 452.09886359245206 L 221 451.7104737847567 L 222 451.31701204040985 L 223 450.91851850413127 L 224 450.5150338340323 L 225 450.1065991974672 L 226 449.693256266833 L 227 449.2750472153178 L 228 448.8520147125977 L 229 448.42420192048337 L 230 447.99165248851614 L 231 447.55441054951444 L 232 447.1125207150712 L 233 446.66602807100185 L 234 446.21497817274434 L 235 445.75941704071124 L 236 445.29939115559415 L 237 444.8349474536214 L 238 444.36613332176915 L 239 443.8929965929264 L 240 443.4155855410149 L 241 442.93394887606337 L 242 442.448135739238 L 243 441.9581956978286 L 244 441.46417874019096 L 245 440.96613527064676 L 246 440.4641161043409 L 247 439.95817246205684 L 248 439.4483559649903 L 249 438.9347186294828 L 250 438.4173128617141 L 251 437.8961914523554 L 252 437.37140757118317 L 253 436.8430147616541 L 254 436.3110669354421 L 255 435.775618366938 L 256 435.2367236877115 L 257 434.69443788093764 L 258 434.14881627578643 L 259 433.5999145417779 L 260 433.04778868310217 L 261 432.49249503290525 L 262 431.93409024754146 L 263 431.3726313007929 L 264 430.80817547805617 L 265 430.2407803704978 L 266 429.6705038691783 L 267 429.09740415914536 L 268 428.5215397134973 L 269 427.94296928741727 L 270 427.3617519121783 L 271 426.7779468891203 L 272 426.19161378359985 L 273 425.60281241891255 L 274 425.0116028701894 L 275 424.41804545826716 L 276 423.82220074353404 L 277 423.22412951975093 L 278 422.62389280784805 L 279 422.0215518496995 L 280 421.41716810187484 L 281 420.8108032293683 L 282 420.20251909930727 L 283 419.59237777464045 L 284 418.9804415078049 L 285 418.366772734375 L 286 417.75143406669184 L 287 417.1344882874752 L 288 416.51599834341755 L 289 415.8960273387619 L 290 415.27463852886314 L 291 414.6518953137342 L 292 414.0278612315773 L 293 413.4025999523012 L 294 412.77617527102524 L 295 412.14865110156984 L 296 411.5200914699357 L 297 410.8905605077716 L 298 410.2601224458304 L 299 409.6288416074159 L 300 408.99678240182016 L 301 408.3640093177517 L 302 407.73058691675556 L 303 407.09657982662645 L 304 406.4620527348146 L 305 405.82707038182565 L 306 405.19169755461553 L 307 404.55599907997987 L 308 403.92003981794016 L 309 403.28388465512575 L 310 402.6475984981537 L 311 402.01124626700636 L 312 401.3748928884076 L 313 400.73860328919835 L 314 400.10244238971217 L 315 399.46647509715143 L 316 398.8307662989649 L 317 398.19538085622725 L 318 397.5603835970214 L 319 396.925839309824 L 320 396.29181273689534 L 321 395.6583685676733 L 322 395.0255714321736 L 323 394.3934858943953 L 324 393.76217644573353 L 325 393.13170749839946 L 326 392.50214337884813 L 327 391.8735483212155 L 328 391.2459864607647 L 329 390.61952182734206 L 330 389.9942183388444 L 331 389.3701397946976 L 332 388.74734986934675 L 333 388.12591210576 L 334 387.50588990894505 L 335 386.8873465394798 L 336 386.2703451070582 L 337 385.65494856405115 L 338 385.04121969908323 L 339 384.4292211306268 L 340 383.81901530061276 L 341 383.2106644680597 L 342 382.6042307027218 L 343 381.9997758787557 L 344 381.3973616684075 L 345 380.7970495357205 L 346 380.198900730264 L 347 379.602976280884 L 348 379.0093369894764 L 349 378.4180434247838 L 350 377.8291559162149 L 351 377.2427345476901 L 352 376.6588391515102 L 353 376.07752930225263 L 354 375.4988643106924 L 355 374.922903217751 L 356 374.3497047884725 L 357 373.77932750602736 L 358 373.21182956574603 L 359 372.64726886918095 L 360 372.0857030181989 L 361 371.5271893091039 L 362 370.9717847267915 L 363 370.4195459389343 L 364 369.8705292902004 L 365 369.3247907965047 L 366 368.7823861392933 L 367 368.2433706598625 L 368 367.70779935371235 L 369 367.17572686493565 L 370 366.6472074806423 L 371 366.1222951254207 L 372 365.60104335583566 L 373 365.08350535496425 L 374 364.5697339269693 L 375 364.059781491712 L 376 363.55370007940354 L 377 363.0515413252964 L 378 362.55335646441597 L 379 362.0591963263332 L 380 361.56911132997857 L 381 361.0831514784975 L 382 360.601366354149 L 383 360.12380511324636 L 384 359.6505164811423 L 385 359.181548747257 L 386 358.71694976015146 L 387 358.2567669226455 L 388 357.80104718698124 L 389 357.34983705003253 L 390 356.903182548561 L 391 356.4611292545189 L 392 356.0237222703993 L 393 355.5910062246346 L 394 355.1630252670428 L 395 354.7398230643231 L 396 354.32144279560055 L 397 353.90792714802035 L 398 353.49931831239303 L 399 353.09565797888894 L 400 352.6969873327853 L 401 352.3033470502637 L 402 351.91477729426026 L 403 351.5313177103674 L 404 351.1530074227891 L 405 350.7798850303491 L 406 350.4119886025525 L 407 350.0493556757018 L 408 349.6920232490668 L 409 349.3400277811096 L 410 348.9934051857652 L 411 348.65219082877655 L 412 348.3164195240868 L 413 347.98612553028687 L 414 347.66134254712017 L 415 347.3421037120443 L 416 347.02844159685 L 417 346.7203882043378 L 418 346.4179749650528 L 419 346.12123273407803 L 420 345.8301917878862 L 421 345.5448818212502 L 422 345.26533194421415 L 423 344.9915706791228 L 424 344.7236259577112 L 425 344.4615251182555 L 426 344.2052949027832 L 427 343.9549614543446 L 428 343.71055031434565 L 429 343.472086419942 L 430 343.2395941014945 L 431 343.0130970800868 L 432 342.7926184651055 L 433 342.5781807518814 L 434 342.3698058193954 L 435 342.16751492804553 L 436 341.97132871747783 L 437 341.78126720448057 L 438 341.5973497809421 L 439 341.4195952118721 L 440 341.248021633487 L 441 341.0826465513597 L 442 340.92348683863327 L 443 340.7705587342997 L 444 340.6238778415427 L 445 340.483459126146 L 446 340.34931691496604 L 447 340.2214648944707 L 448 340.0999161093426 L 449 339.9846829611479 L 450 339.87577720707145 L 451 339.773209958717 L 452 339.6769916809735 L 453 339.58713219094733 L 454 339.50364065696067 L 455 339.42652559761615 L 456 339.35579488092753 L 457 339.2914557235173 L 458 339.2335146898797 L 459 339.1819776917118 L 460 339.1368499873096 L 461 339.0981361810319 L 462 339.0658402228305 L 463 339.0399654078471 L 464 339.02051437607696 L 465 339.0074891121 L 466 339.0008909448779 L 467 339.00072054761847 L 468 339.00697793770735 L 469 339.01966247670595 L 470 339.03877287041655 L 471 339.06430716901457 L 472 339.0962627672473 L 473 339.1346364046999 L 474 339.1794241661278 L 475 339.2306214818564 L 476 339.28822312824735 L 477 339.35222322823125 L 478 339.42261525190753 L 479 339.4993920172105 L 480 339.58254569064235 L 481 339.67206778807224 L 482 339.7679491756019 L 483 339.87018007049784 L 484 339.978750042189 L 485 340.0936480133314 L 486 340.2148622609383 L 487 340.34238041757584 L 488 340.47618947262566 L 489 340.61627577361173 L 490 340.7626250275935 L 491 340.9152223026243 L 492 341.07405202927464 L 493 341.23909800222106 L 494 341.4103433818992 L 495 341.58777069622226 L 496 341.7713618423634 L 497 341.9610980886027 L 498 342.1569600762389 L 499 342.3589278215639 L 500 342.566980717902 L 501 342.7810975377125 L 502 343.0012564347553 L 503 343.2274349463198 L 504 343.45960999551727 L 505 343.6977578936347 L 506 343.94185434255206 L 507 344.1918744372217 L 508 344.447792668209 L 509 344.70958292429515 L 510 344.9772184951414 L 511 345.2506720740142 L 512 345.5299157605714 L 513 345.8149210637087 L 514 346.10565890446696 L 515 346.40209961899865 L 516 346.70421296159475 L 517 347.0119681077707 L 518 347.3253336574112 L 519 347.64427763797414 L 520 347.9687675077528 L 521 348.2987701591956 L 522 348.63425192228476 L 523 348.97517856797117 L 524 349.32151531166676 L 525 349.6732268167937 L 526 350.03027719838997 L 527 350.39263002677 L 528 350.76024833124245 L 529 351.13309460388166 L 530 351.5111308033549 L 531 351.8943183588035 L 532 352.2826181737784 L 533 352.6759906302291 L 534 353.0743955925457 L 535 353.4777924116542 L 536 353.88613992916373 L 537 354.29939648156585 L 538 354.71751990448564 L 539 355.14046753698364 L 540 355.5681962259085 L 541 356.00066233029986 L 542 356.43782172584116 L 543 356.87962980936135 L 544 357.326041503386 L 545 357.7770112607365 L 546 358.23249306917705 L 547 358.69244045610924 L 548 359.156806493314 L 549 359.62554380173924 L 550 360.0986045563342 L 551 360.5759404909288 L 552 361.05750290315854 L 553 361.54324265943296 L 554 362.0331101999495 L 555 362.52705554374955 L 556 363.025028293818 L 557 363.52697764222563 L 558 364.0328523753124 L 559 364.5426008789133 L 560 365.05617114362417 L 561 365.57351077010856 L 562 366.0945669744434 L 563 366.61928659350536 L 564 367.1476160903942 L 565 367.67950155989575 L 566 368.2148887339815 L 567 368.7537229873457 L 568 369.29594934297864 L 569 369.84151247777606 L 570 370.3903567281836 L 571 370.9424260958761 L 572 371.4976642534714 L 573 372.056014550277 L 574 372.61742001807033 L 575 373.18182337691115 L 576 373.7491670409858 L 577 374.3193931244825 L 578 374.8924434474978 L 579 375.4682595419721 L 580 376.0467826576557 L 581 376.62795376810254 L 582 377.21171357669306 L 583 377.79800252268393 L 584 378.3867607872851 L 585 378.9779282997631 L 586 379.5714447435701 L 587 380.16724956249766 L 588 380.7652819668558 L 589 381.36548093967485 L 590 381.96778524293103 L 591 382.572133423795 L 592 383.1784638209012 L 593 383.7867145706396 L 594 384.3968236134677 L 595 385.0087287002418 L 596 385.62236739856894 L 597 386.2376770991765 L 598 386.8545950223004 L 599 387.47305822409 L 600 388.09300360303104 L 601 388.7143679063831 L 602 389.33708773663363 L 603 389.96109955796646 L 604 390.586339702744 L 605 391.21274437800326 L 606 391.8402496719651 L 607 392.46879156055456 L 608 393.09830591393325 L 609 393.728728503043 L 610 394.3599950061585 L 611 394.99204101545035 L 612 395.62480204355654 L 613 396.258213530162 L 614 396.8922108485857 L 615 397.52672931237436 L 616 398.1617041819026 L 617 398.79707067097814 L 618 399.4327639534519 L 619 400.0687191698323 L 620 400.70487143390267 L 621 401.34115583934164 L 622 401.97750746634574 L 623 402.6138613882526 L 624 403.2501526781658 L 625 403.88631641557953 L 626 404.52228769300166 L 627 405.1580016225769 L 628 405.793393342707 L 629 406.4283980246687 L 630 407.06295087922774 L 631 407.69698716325007 L 632 408.33044218630664 L 633 408.9632513172745 L 634 409.59534999093063 L 635 410.22667371453974 L 636 410.8571580744341 L 637 411.4867387425862 L 638 412.11535148317165 L 639 412.74293215912303 L 640 413.3694167386744 L 641 413.9947413018937 L 642 414.61884204720496 L 643 415.2416552978978 L 644 415.86311750862427 L 645 416.4831652718824 L 646 417.1017353244855 L 647 417.7187645540174 L 648 418.33419000527107 L 649 418.9479488866722 L 650 419.5599785766861 L 651 420.17021663020654 L 652 420.778600784927 L 653 421.38506896769366 L 654 421.9895593008382 L 655 422.5920101084915 L 656 423.1923599228763 L 657 423.79054749057866 L 658 424.3865117787976 L 659 424.98019198157255 L 660 425.5715275259869 L 661 426.16045807834837 L 662 426.7469235503453 L 663 427.33086410517666 L 664 427.9122201636577 L 665 428.4909324102986 L 666 429.0669417993566 L 667 429.64018956085994 L 668 430.2106172066047 L 669 430.77816653612194 L 670 431.34277964261605 L 671 431.9043989188729 L 672 432.4629670631375 L 673 433.01842708496025 L 674 433.5707223110122 L 675 434.11979639086667 L 676 434.6655933027493 L 677 435.2080573592536 L 678 435.7471332130227 L 679 436.28276586239656 L 680 436.8149006570236 L 681 437.34348330343687 L 682 437.8684598705935 L 683 438.38977679537686 L 684 438.90738088806245 L 685 439.421219337744 L 686 439.93123971772206 L 687 440.43738999085315 L 688 440.939618514859 L 689 441.43787404759547 L 690 441.9321057522811 L 691 442.4222632026835 L 692 442.9082963882648 L 693 443.3901557192837 L 694 443.86779203185563 L 695 444.34115659296845 L 696 444.8102011054549 L 697 445.2748777129203 L 698 445.7351390046252 L 699 446.19093802032296 L 700 446.6422282550507 L 701 447.08896366387455 L 702 447.53109866658735 L 703 447.96858815235925 L 704 448.40138748434015 L 705 448.8294525042146 L 706 449.2527395367065 L 707 449.67120539403555 L 708 450.08480738032404 L 709 450.49350329595245 L 710 450.8972514418656 L 711 451.29601062382676 L 712 451.68974015662116 L 713 452.07839986820653 L 714 452.4619501038122 L 715 452.8403517299852 L 716 453.2135661385824 L 717 453.5815552507104 L 718 453.94428152061016 L 719 454.3017079394882 L 720 454.6537980392923 L 721 455.0005158964324 L 722 455.3418261354458 L 723 455.6776939326067 L 724 456.00808501947915 L 725 456.3329656864132 L 726 456.6523027859848 L 727 456.96606373637724 L 728 457.2742165247059 L 729 457.57672971028427 L 730 457.87357242783196 L 731 458.16471439062377 L 732 458.4501258935798 L 733 458.7297778162965 L 734 459.00364162601755 L 735 459.2716893805449 L 736 459.5338937310903 L 737 459.79022792506504 L 738 460.0406658088099 L 739 460.28518183026335 L 740 460.52375104156886 L 741 460.75634910162006 L 742 460.9829522785445 L 743 461.2035374521248 L 744 461.4180821161578 L 745 461.6265643807505 L 746 461.828962974554 L 747 462.0252572469333 L 748 462.2154271700745 L 749 462.39945334102845 L 750 462.5773169836899 L 751 462.7489999507137 L 752 462.9144847253661 L 753 463.07375442331204 L 754 463.22679279433794 L 755 463.3735842240096 L 756 463.5141137352653 L 757 463.64836698994395 L 758 463.77633029024815 L 759 463.8979905801415 L 760 464.0133354466809 L 761 464.1223531212829 L 762 464.22503248092465 L 763 464.32136304927855 L 764 464.4113349977813 L 765 464.49493914663645 L 766 464.57216696575153 L 767 464.6430105756078 L 768 464.7074627480645 L 769 464.76551690709624 L 770 464.8171671294641 L 771 464.86240814531976 L 772 464.9012353387433 L 773 464.9336447482141 L 774 464.9596330670151 L 775 464.97919764357016 L 776 464.9923364817146 L 777 464.9990482408988 L 778 464.9993322363251 L 779 464.99318843901756 L 780 464.98061747582506 L 781 464.96162062935707 L 782 464.93619983785305 L 783 464.90435769498464 L 784 464.86609744959094 L 785 464.82142300534707 L 786 464.770338920366 L 787 464.7128504067332 L 788 464.6489633299751 L 789 464.5786842084608 L 790 464.50202021273634 L 791 464.4189791647939 L 792 464.3295695372731 L 793 464.2338004525969 L 794 464.1316816820407 L 795 464.0232236447356 L 796 463.90843740660483 L 797 463.78733467923524 L 798 463.65992781868204 L 799 463.5262298242084 L 800 463.38625433695876 L 801 463.2400156385674 L 802 463.0875286497011 L 803 462.9288089285368 L 804 462.76387266917425 L 805 462.5927366999837 L 806 462.415418481889 L 807 462.23193610658586 L 808 462.0423082946962 L 809 461.84655439385807 L 810 461.6446943767513 L 811 461.4367488390602 L 812 461.2227389973718 L 813 461.0026866870112 L 814 460.77661435981395 L 815 460.54454508183494 L 816 460.30650253099543 L 817 460.06251099466664 L 818 459.81259536719233 L 819 459.55678114734826 L 820 459.29509443574113 L 821 459.027561932145 L 822 458.7542109327775 L 823 458.4750693275147 L 824 458.1901655970455 L 825 457.8995288099658 L 826 457.60318861981244 L 827 457.3011752620382 L 828 456.9935195509261 L 829 456.6802528764462 L 830 456.3614072010524 L 831 456.0370150564214 L 832 455.70710954013384 L 833 455.371724312297 L 834 455.03089359211043 L 835 454.68465215437493 L 836 454.33303532594437 L 837 453.97607898212107 L 838 453.61381954299577 L 839 453.2462939697315 L 840 452.8735397607924 L 841 452.49559494811825 L 842 452.11249809324335 L 843 451.7242882833627 L 844 451.33100512734364 L 845 450.9326887516848 L 846 450.5293797964216 L 847 450.1211194109804 L 848 449.70794924997944 L 849 449.2899114689792 L 850 448.8670487201812 L 851 448.43940414807616 L 852 448.0070213850418 L 853 447.56994454689175 L 854 447.12821822837344 L 855 446.68188749861906 L 856 446.2309978965464 L 857 445.7755954262133 L 858 445.3157265521229 L 859 444.8514381944839 L 860 444.3827777244227 L 861 443.9097929591503 L 862 443.43253215708364 L 863 442.9510440129216 L 864 442.4653776526769 L 865 441.9755826286637 L 866 441.4817089144416 L 867 440.9838068997175 L 868 440.4819273852035 L 869 439.9761215774346 L 870 439.4664410835434 L 871 438.95293790599476 L 872 438.4356644372806 L 873 437.91467345457374 L 874 437.39001811434315 L 875 436.8617519469306 L 876 436.32992885108894 L 877 435.79460308848246 L 878 435.2558292781513 L 879 434.71366239093817 L 880 434.1681577438798 L 881 433.61937099456316 L 882 433.06735813544645 L 883 432.51217548814634 L 884 431.9538796976916 L 885 431.3925277267436 L 886 430.8281768497843 L 887 430.2608846472727 L 888 429.69070899977 L 889 429.1177080820336 L 890 428.54194035708224 L 891 427.96346457023066 L 892 427.3823397430959 L 893 426.79862516757527 L 894 426.212380399797 L 895 425.6236652540438 L 896 425.03253979664936 L 897 424.439064339871 L 898 423.84329943573505 L 899 423.2453058698592 L 900 422.64514465525036 L 901 422.0428770260799 L 902 421.4385644314353 L 903 420.83226852905113 L 904 420.22405117901803 L 905 419.61397443747086 L 906 419.0021005502575 L 907 418.3884919465878 L 908 417.7732112326635 L 909 417.15632118529163 L 910 416.53788474547827 L 911 415.9179650120074 L 912 415.2966252350028 L 913 414.6739288094746 L 914 414.049939268851 L 915 413.42472027849635 L 916 412.79833562921505 L 917 412.1708492307432 L 918 411.5423251052279 L 919 410.91282738069515 L 920 410.2824202845064 L 921 409.65116813680623 L 922 409.01913534395936 L 923 408.3863863919794 L 924 407.7529858399492 L 925 407.1189983134343 L 926 406.4844884978889 L 927 405.84952113205577 L 928 405.2141610013618 L 929 404.5784729313072 L 930 403.9425217808519 L 931 403.3063724357976 L 932 402.6700898021679 L 933 402.03373879958554 L 934 401.397384354649 L 935 400.76109139430804 L 936 400.12492483923927 L 937 399.48894959722196 L 938 398.8532305565161 L 939 398.21783257924125 L 940 397.58282049475923 L 941 396.94825909305945 L 942 396.3142131181482 L 943 395.680747261443 L 944 395.04792615517255 L 945 394.4158143657814 L 946 393.7844763873431 L 947 393.15397663497976 L 948 392.52437943828943 L 949 391.895749034783 L 950 391.2681495633299 L 951 390.6416450576138 L 952 390.0162994395998 L 953 389.392176513012 L 954 388.76933995682407 L 955 388.14785331876175 L 956 387.5277800088195 L 957 386.9091832927901 L 958 386.2921262858105 L 959 385.6766719459219 L 960 385.0628830676458 L 961 384.4508222755777 L 962 383.84055201799714 L 963 383.23213456049643 L 964 382.62563197962714 L 965 382.0211061565672 L 966 381.4186187708068 L 967 380.8182312938553 L 968 380.22000498296933 L 969 379.6240008749028 L 970 379.030279779679 L 971 378.4389022743869 L 972 377.8499286969998 L 973 377.2634191402195 L 974 376.67943344534484 L 975 376.0980311961663 L 976 375.51927171288617 L 977 374.9432140460671 L 978 374.3699169706064 L 979 373.7994389797396 L 980 373.23183827907224 L 981 372.66717278064147 L 982 372.10550009700665 L 983 371.5468775353722 L 984 370.99136209173963 L 985 370.4390104450928 L 986 369.8898789516148 L 987 369.344023638938 L 988 368.8015002004273 L 989 368.26236398949845 L 990 367.7266700139697 L 991 367.1944729304496 L 992 366.6658270387604 L 993 366.14078627639816 L 994 365.61940421302893 L 995 365.1017340450235 L 996 364.58782859002963 L 997 364.0777402815834 L 998 363.5715211637589 L 999 363.0692228858588 L 1000 362.570896697144 L 1001 362.076593441605 L 1002 361.5863635527744 L 1003 361.10025704858117 L 1004 360.61832352624697 L 1005 360.14061215722637 L 1006 359.6671716821894 L 1007 359.19805040604865 L 1008 358.7332961930311 L 1009 358.27295646179414 L 1010 357.8170781805876 L 1011 357.3657078624618 L 1012 356.9188915605216 L 1013 356.4766748632275 L 1014 356.03910288974475 L 1015 355.6062202853393 L 1016 355.17807121682324 L 1017 354.7546993680479 L 1018 354.33614793544746 L 1019 353.9224596236307 L 1020 353.513676641025 L 1021 353.1098406955689 L 1022 352.7109929904572 L 1023 352.3171742199369 L 1024 351.9284245651549 L 1025 351.5447836900588 L 1026 351.1662907373496 L 1027 350.7929843244882 L 1028 350.42490253975535 L 1029 350.0620829383653 L 1030 349.7045625386342 L 1031 349.35237781820314 L 1032 349.00556471031615 L 1033 348.6641586001543 L 1034 348.32819432122517 L 1035 347.9977061518087 L 1036 347.67272781146005 L 1037 347.353292457569 L 1038 347.03943268197696 L 1039 346.73118050765163 L 1040 346.42856738541985 L 1041 346.1316241907586 L 1042 345.8403812206446 L 1043 345.55486819046354 L 1044 345.2751142309777 L 1045 345.00114788535427 L 1046 344.73299710625275 L 1047 344.4706892529732 L 1048 344.2142510886646 L 1049 343.96370877759415 L 1050 343.7190878824781 L 1051 343.48041336187316 L 1052 343.2477095676303 L 1053 343.0210002424101 L 1054 342.80030851726013 L 1055 342.5856569092551 L 1056 342.3770673191992 L 1057 342.1745610293919 L 1058 341.9781587014563 L 1059 341.7878803742311 L 1060 341.603745461726 L 1061 341.42577275114104 L 1062 341.25398040094956 L 1063 341.0883859390455 L 1064 340.92900626095536 L 1065 340.7758576281139 L 1066 340.6289556662053 L 1067 340.48831536356886 L 1068 340.3539510696696 L 1069 340.22587649363436 L 1070 340.10410470285274 L 1071 339.9886481216443 L 1072 339.8795185299907 L 1073 339.77672706233363 L 1074 339.6802842064391 L 1075 339.590199802327 L 1076 339.5064830412674 L 1077 339.4291424648428 L 1078 339.3581859640764 L 1079 339.2936207786272 L 1080 339.2354534960512 L 1081 339.1836900511293 L 1082 339.13833572526187 L 1083 339.0993951459298 L 1084 339.0668722862224 L 1085 339.04077046443206 L 1086 339.02109234371545 L 1087 339.0078399318222 L 1088 339.00101458088983 L 1089 339.0006169873057 L 1090 339.00664719163603 L 1091 339.0191045786219 L 1092 339.03798787724196 L 1093 339.06329516084185 L 1094 339.0950238473312 L 1095 339.13317069944685 L 1096 339.177731825083 L 1097 339.2287026776887 L 1098 339.2860780567314 L 1099 339.3498521082277 L 1100 339.4200183253406 L 1101 339.4965695490435 L 1102 339.5794979688504 L 1103 339.66879512361294 L 1104 339.76445190238377 L 1105 339.8664585453459 L 1106 339.97480464480884 L 1107 340.08947914627015 L 1108 340.21047034954336 L 1109 340.33776590995205 L 1110 340.4713528395891 L 1111 340.61121750864174 L 1112 340.7573456467826 L 1113 340.90972234462515 L 1114 341.06833205524555 L 1115 341.2331585957683 L 1116 341.4041851490177 L 1117 341.58139426523354 L 1118 341.7647678638518 L 1119 341.9542872353489 L 1120 342.149933043151 L 1121 342.3516853256069 L 1122 342.5595234980245 L 1123 342.77342635477106 L 1124 342.99337207143714 L 1125 343.219338207063 L 1126 343.45130170642824 L 1127 343.6892389024044 L 1128 343.93312551836925 L 1129 344.18293667068434 L 1130 344.4386468712331 L 1131 344.7002300300223 L 1132 344.96765945784296 L 1133 345.2409078689944 L 1134 345.5199473840675 L 1135 345.8047495327897 L 1136 346.09528525692923 L 1137 346.3915249132608 L 1138 346.6934382765891 L 1139 347.0009945428334 L 1140 347.31416233217 L 1141 347.6329096922342 L 1142 347.95720410138017 L 1143 348.28701247199945 L 1144 348.6223011538965 L 1145 348.96303593772217 L 1146 349.30918205846393 L 1147 349.66070419899324 L 1148 350.0175664936686 L 1149 350.3797325319952 L 1150 350.7471653623396 L 1151 351.11982749570006 L 1152 351.4976809095314 L 1153 351.8806870516246 L 1154 352.26880684404 L 1155 352.66200068709486 L 1156 353.060228463403 L 1157 353.46344954196877 L 1158 353.8716227823318 L 1159 354.28470653876525 L 1160 354.70265866452445 L 1161 355.12543651614726 L 1162 355.5529969578051 L 1163 355.9852963657037 L 1164 356.4222906325345 L 1165 356.8639351719745 L 1166 357.31018492323557 L 1167 357.7609943556619 L 1168 358.21631747337574 L 1169 358.67610781996984 L 1170 359.1403184832478 L 1171 359.6089021000103 L 1172 360.0818108608877 L 1173 360.5589965152176 L 1174 361.04041037596863 L 1175 361.52600332470706 L 1176 362.015725816609 L 1177 362.509527885515 L 1178 363.00735914902833 L 1179 363.5091688136553 L 1180 364.01490567998815 L 1181 364.52451814792806 L 1182 365.0379542219507 L 1183 365.5551615164109 L 1184 366.0760872608875 L 1185 366.60067830556767 L 1186 367.12888112666985 L 1187 367.66064183190446 L 1188 368.1959061659726 L 1189 368.7346195161018 L 1190 369.2767269176181 L 1191 369.82217305955396 L 1192 370.3709022902918 L 1193 370.922858623242 L 1194 371.4779857425552 L 1195 372.036227008868 L 1196 372.5975254650823 L 1197 373.16182384217615 L 1198 373.72906456504694 L 1199 374.29918975838626 L 1200 374.8721412525842 L 1201 375.4478605896648 L 1202 376.0262890292503 L 1203 376.6073675545545 L 1204 377.19103687840413 L 1205 377.7772374492881 L 1206 378.3659094574333 L 1207 378.9569928409069 L 1208 379.5504272917446 L 1209 380.14615226210384 L 1210 380.7441069704413 L 1211 381.3442304077148 L 1212 381.94646134360744 L 1213 382.55073833277544 L 1214 383.1569997211169 L 1215 383.7651836520629 L 1216 384.3752280728879 L 1217 384.9870707410422 L 1218 385.60064923050106 L 1219 386.215900938135 L 1220 386.8327630900968 L 1221 387.45117274822644 L 1222 388.07106681647235 L 1223 388.69238204732943 L 1224 389.31505504829215 L 1225 389.9390222883221 L 1226 390.5642201043304 L 1227 391.1905847076729 L 1228 391.81805219065876 L 1229 392.44655853307086 L 1230 393.07603960869795 L 1231 393.70643119187685 L 1232 394.33766896404586 L 1233 394.96968852030693 L 1234 395.60242537599714 L 1235 396.23581497326757 L 1236 396.86979268767067 L 1237 397.5042938347534 L 1238 398.13925367665706 L 1239 398.77460742872273 L 1240 399.41029026610084 L 1241 400.0462373303654 L 1242 400.68238373613167 L 1243 401.31866457767603 L 1244 401.9550149355585 L 1245 402.5913698832462 L 1246 403.22766449373825 L 1247 403.8638338461896 L 1248 404.4998130325357 L 1249 405.1355371641141 L 1250 405.7709413782857 L 1251 406.4059608450524 L 1252 407.0405307736716 L 1253 407.67458641926686 L 1254 408.3080630894341 L 1255 408.94089615084147 L 1256 409.57302103582447 L 1257 410.20437324897335 L 1258 410.83488837371374 L 1259 411.4645020788791 L 1260 412.0931501252742 L 1261 412.7207683722296 L 1262 413.34729278414596 L 1263 413.97265943702706 L 1264 414.59680452500265 L 1265 415.219664366838 L 1266 415.8411754124313 L 1267 416.46127424929836 L 1268 417.0798976090414 L 1269 417.6969823738051 L 1270 418.31246558271636 L 1271 418.9262844383079 L 1272 419.5383763129258 L 1273 420.14867875511925 L 1274 420.7571294960122 L 1275 421.363666455657 L 1276 421.9682277493681 L 1277 422.57075169403635 L 1278 423.1711768144221 L 1279 423.7694418494283 L 1280 424.36548575834996 L 1281 424.95924772710265 L 1282 425.55066717442736 L 1283 426.1396837580713 L 1284 426.72623738094484 L 1285 427.3102681972532 L 1286 427.89171661860223 L 1287 428.47052332007837 L 1288 429.04662924630156 L 1289 429.6199756174505 L 1290 430.19050393526015 L 1291 430.75815598899004 L 1292 431.32287386136375 L 1293 431.8845999344778 L 1294 432.4432768956808 L 1295 432.9988477434207 L 1296 433.55125579306093 L 1297 434.1004446826634 L 1298 434.64635837874 L 1299 435.18894118196863 L 1300 435.72813773287675 L 1301 436.26389301748975 L 1302 436.79615237294354 L 1303 437.32486149306226 L 1304 437.84996643389906 L 1305 438.37141361923955 L 1306 438.8891498460685 L 1307 439.4031222899982 L 1308 439.91327851065785 L 1309 440.4195664570441 L 1310 440.92193447283205 L 1311 441.4203313016453 L 1312 441.91470609228594 L 1313 442.40500840392264 L 1314 442.89118821123736 L 1315 443.37319590952904 L 1316 443.8509823197753 L 1317 444.3244986936497 L 1318 444.79369671849537 L 1319 445.258528522255 L 1320 445.71894667835454 L 1321 446.1749042105425 L 1322 446.6263545976825 L 1323 447.07325177850066 L 1324 447.5155501562842 L 1325 447.953204603534 L 1326 448.38617046656935 L 1327 448.8144035700834 L 1328 449.23786022165064 L 1329 449.65649721618485 L 1330 450.070271840347 L 1331 450.4791418769035 L 1332 450.8830656090337 L 1333 451.28200182458585 L 1334 451.67590982028247 L 1335 452.06474940587293 L 1336 452.44848090823416 L 1337 452.8270651754184 L 1338 453.20046358064786 L 1339 453.5686380262561 L 1340 453.93155094757446 L 1341 454.2891653167657 L 1342 454.6414446466009 L 1343 454.98835299418306 L 1344 455.3298549646139 L 1345 455.6659157146052 L 1346 455.9965009560341 L 1347 456.32157695944136 L 1348 456.6411105574726 L 1349 456.9550691482627 L 1350 457.2634206987617 L 1351 457.56613374800355 L 1352 457.8631774103158 L 1353 458.15452137847103 L 1354 458.4401359267789 L 1355 458.719991914119 L 1356 458.99406078691453 L 1357 459.26231458204506 L 1358 459.5247259296999 L 1359 459.78126805617063 L 1360 460.0319147865827 L 1361 460.2766405475662 L 1362 460.51542036986484 L 1363 460.7482298908838 L 1364 460.9750453571753 L 1365 461.19584362686214 L 1366 461.41060217199913 L 1367 461.61929908087114 L 1368 461.82191306022906 L 1369 462.0184234374623 L 1370 462.2088101627079 L 1371 462.39305381089633 L 1372 462.57113558373345 L 1373 462.7430373116183 L 1374 462.9087414554971 L 1375 463.0682311086525 L 1376 463.2214899984292 L 1377 463.3685024878934 L 1378 463.50925357742886 L 1379 463.643728906267 L 1380 463.7719147539521 L 1381 463.89379804174155 L 1382 464.00936633393974 L 1383 464.11860783916734 L 1384 464.22151141156405 L 1385 464.318066551926 L 1386 464.40826340877686 L 1387 464.49209277937297 L 1388 464.56954611064253 L 1389 464.6406155000579 L 1390 464.70529369644214 L 1391 464.76357410070887 L 1392 464.81545076653526 L 1393 464.8609184009692 L 1394 464.8999723649689 L 1395 464.9326086738765 L 1396 464.9588239978245 L 1397 464.9786156620755 L 1398 464.9919816472952 L 1399 464.99892058975826 L 1400 464.9994317814876 L 1401 464.9935151703266 L 1402 464.9811713599443 L 1403 464.962401609774 L 1404 464.93720783488465 L 1405 464.9055926057854 L 1406 464.8675591481635 L 1407 464.823111342555 L 1408 464.772253723949 L 1409 464.7149914813248 L 1410 464.65133045712247 L 1411 464.5812771466469 L 1412 464.50483869740503 L 1413 464.4220229083764 L 1414 464.3328382292177 L 1415 464.23729375940053 L 1416 464.1353992472829 L 1417 464.0271650891148 L 1418 463.9126023279773 L 1419 463.791722652656 L 1420 463.6645383964482 L 1421 463.5310625359048 L 1422 463.39130868950616 L 1423 463.2452911162725 L 1424 463.0930247143093 L 1425 462.9345250192872 L 1426 462.7698082028567 L 1427 462.59889107099855 L 1428 462.42179106230856 L 1429 462.2385262462187 L 1430 462.04911532115347 L 1431 461.85357761262196 L 1432 461.65193307124605 L 1433 461.4442022707252 L 1434 461.2304064057368 L 1435 461.0105672897741 L 1436 460.78470735292046 L 1437 460.5528496395608 L 1438 460.31501780603037 L 1439 460.07123611820117 L 1440 459.82152944900605 L 1441 459.565923275901 L 1442 459.30444367826567 L 1443 459.03711733474245 L 1444 458.7639715205146 L 1445 458.48503410452327 L 1446 458.2003335466238 L 1447 457.90989889468267 L 1448 457.61375978161306 L 1449 457.31194642235164 L 1450 457.004489610776 L 1451 456.6914207165624 L 1452 456.3727716819852 L 1453 456.04857501865825 L 1454 455.71886380421705 L 1455 455.3836716789444 L 1456 455.04303284233777 L 1457 454.69698204962015 L 1458 454.345554608194 L 1459 453.98878637403845 L 1460 453.62671374805154 L 1461 453.25937367233587 L 1462 452.8868036264295 L 1463 452.5090416234819 L 1464 452.1261262063756 L 1465 451.7380964437934 L 1466 451.3449919262325 L 1467 450.9468527619652 L 1468 450.5437195729462 L 1469 450.1356334906684 L 1470 449.72263615196607 L 1471 449.3047696947666 L 1472 448.8820767537914 L 1473 448.4546004562058 L 1474 448.02238441721875 L 1475 447.5854727356328 L 1476 447.1439099893448 L 1477 446.6977412307976 L 1478 446.2470119823831 L 1479 445.7917682317983 L 1480 445.3320564273524 L 1481 444.8679234732283 L 1482 444.3994167246967 L 1483 443.9265839832844 L 1484 443.4494734918974 L 1485 442.9681339298984 L 1486 442.48261440814036 L 1487 441.9929644639556 L 1488 441.49923405610144 L 1489 441.0014735596632 L 1490 440.49973376091395 L 1491 439.9940658521334 L 1492 439.48452142638445 L 1493 438.9711524722492 L 1494 438.4540113685246 L 1495 437.93315087887845 L 1496 437.4086241464655 L 1497 436.88048468850565 L 1498 436.34878639082365 L 1499 435.8135835023509 L 1500 435.27493062959064 L 1501 434.7328827310464 L 1502 434.18749511161445 L 1503 433.63882341694153 L 1504 433.0869236277468 L 1505 432.5318520541106 L 1506 431.9736653297289 L 1507 431.4124204061351 L 1508 430.848174546889 L 1509 430.2809853217349 L 1510 429.71091060072695 L 1511 429.1380085483255 L 1512 428.5623376174619 L 1513 427.9839565435751 L 1514 427.40292433861845 L 1515 426.81930028503916 L 1516 426.23314392972964 L 1517 425.6445150779516 L 1518 425.0534737872347 L 1519 424.46008036124834 L 1520 423.8643953436497 L 1521 423.2664795119052 L 1522 422.66639387109086 L 1523 422.0641996476671 L 1524 421.4599582832321 L 1525 420.85373142825273 L 1526 420.24558093577485 L 1527 419.63556885511167 L 1528 419.02375742551385 L 1529 418.4102090698186 L 1530 417.79498638808093 L 1531 417.1781521511865 L 1532 416.5597692944474 L 1533 415.9399009111803 L 1534 415.31861024626977 L 1535 414.69596068971504 L 1536 414.07201577016247 L 1537 413.4468391484236 L 1538 412.82049461098006 L 1539 412.1930460634753" stroke-linecap="round" stroke-linejoin="round" stroke-miterlimit="10" stroke-width="16"/></g></svg>